# xmcd
# 
# Track frame offsets:
#     150
#     22420
#     52707
#     82037
#     102460
#     124202
#     166740
#     199485
# 
# Disc length: 2926
# 
# Revision: 3
# Processed by: cddbd v1.5.2PL0 Copyright (c) Steve Scherf et al.
# Submitted via: BonkEnc v1.0.8
# 
DISCID=6c0b6c08
DTITLE=George Cables, Cecil McBee, Billy Hart - Night And Day
DYEAR=1991
DGENRE=Jazz
TTITLE0=I Thought About You
TTITLE1=Night And Day
TTITLE2=Very Early
TTITLE3=I Love You
TTITLE4=Three View Of A Secret
TTITLE5=Ebony Moonbeams
TTITLE6=Grear Is Here
TTITLE7=Doxy
EXTD=YEAR: 1991
EXTT0=
EXTT1=
EXTT2=
EXTT3=
EXTT4=
EXTT5=
EXTT6=
EXTT7=
PLAYORDER=
